{"title":"Son Of Batman 2014 720p BrRip 6CH x264 Pimp4003","uid":9972925,"size":778682026,"categoryP":"video","categoryS":"hd___movies","magnet":"?xt=urn:btih:60b590dde3f5a9956a49909ec864ca29cda2adda&amp;dn=Son+Of+Batman+2014+720p+BrRip+6CH+x264+Pimp4003&amp;tr=udp%3A%2F%2Ftracker.openbittorrent.com%3A80&amp;tr=udp%3A%2F%2Fopen.demonii.com%3A1337&amp;tr=udp%3A%2F%2Ftracker.coppersurfer.tk%3A6969&amp;tr=udp%3A%2F%2Fexodus.desync.com%3A6969","seeders":1,"leechers":0,"uploader":"shawnmurthy","files":-1,"time":1397608939,"description":"SOURCE IS : PublicHD\n\nSCREENSHOTS:\n &lt;a href=&quot;\nhttp://pimp4003.net/torrents.php?id=60b590dde3f5a9956a49909ec864ca29cda2adda&quot; rel=&quot;nofollow&quot; target=&quot;_NEW&quot;&gt;\nhttp://pimp4003.net/torrents.php?id=60b590dde3f5a9956a49909ec864ca29cda2adda&lt;/a&gt;\n\nSon Of Batman 2014 720p BrRip 6CH x264 Pimp4003\n &lt;a href=&quot;\nhttp://www.imdb.com/title/tt3139072/&quot; rel=&quot;nofollow&quot; target=&quot;_NEW&quot;&gt;\nhttp://www.imdb.com/title/tt3139072/&lt;/a&gt;\n\nBatman learns he has a violent, unruly pre-teen son, secretly raised by the terrorist group the League of Assassins.\n\nDirector: Ethan Spaulding\nWriters: Bob Kane (characters), Grant Morrison (comic book), 17 more credits Â»\nStars: Jason O'Mara, Stuart Allan, Thomas Gibson | See full cast and crew Â»\n\nVideo\nID                                       : 1\nFormat                                   : AVC\nFormat/Info                              : Advanced Video Codec\nFormat profile                           : &lt;a class=&quot;__cf_email__&quot; href=&quot;/cdn-cgi/l/email-protection&quot; data-cfemail=&quot;226f434b4c626e160c12&quot;&gt;[email&amp;#160;protected]&lt;/a&gt;&lt;script cf-hash='f9e31' type=&quot;text/javascript&quot;&gt;\n/* &lt;![CDATA[ */!function(){try{var t=&quot;currentScript&quot;in document?document.currentScript:function(){for(var t=document.getElementsByTagName(&quot;script&quot;),e=t.length;e--;)if(t[e].getAttribute(&quot;cf-hash&quot;))return t[e]}();if(t&amp;&amp;t.previousSibling){var e,r,n,i,c=t.previousSibling,a=c.getAttribute(&quot;data-cfemail&quot;);if(a){for(e=&quot;&quot;,r=parseInt(a.substr(0,2),16),n=2;a.length-n;n+=2)i=parseInt(a.substr(n,2),16)^r,e+=String.fromCharCode(i);e=document.createTextNode(e),c.parentNode.replaceChild(e,c)}}}catch(u){}}();/* ]]&gt; */&lt;/script&gt;\nFormat settings, CABAC                   : Yes\nFormat settings, ReFrames                : 4 frames\nCodec ID                                 : avc1\nCodec ID/Info                            : Advanced Video Coding\nDuration                                 : 1h 14mn\nBit rate                                 : 1 011 Kbps\nWidth                                    : 1 280 pixels\nHeight                                   : 720 pixels\nDisplay aspect ratio                     : 16:9\nFrame rate mode                          : Variable\nFrame rate                               : 23.976 fps\nMinimum frame rate                       : 23.810 fps\nMaximum frame rate                       : 1 000.000 fps\nColor space                              : YUV\nChroma subsampling                       : 4:2:0\nBit depth                                : 8 bits\nScan type                                : Progressive\nBits/(Pixel*Frame)                       : 0.046\nStream size                              : 536 MiB (72%)\nWriting library                          : x264 core 130 r2273 b3065e6\nEncoding settings                        : cabac=1 / ref=1 / deblock=1:0:0 / analyse=0x1:0x111 / me=hex / subme=2 / psy=1 / psy_rd=1.00:0.00 / mixed_ref=0 / me_range=16 / chroma_me=1 / trellis=0 / 8x8dct=0 / cqm=0 / deadzone=21,11 / fast_pskip=1 / chroma_qp_offset=0 / threads=12 / lookahead_threads=4 / sliced_threads=0 / nr=0 / decimate=1 / interlaced=0 / bluray_compat=0 / constrained_intra=0 / bframes=3 / b_pyramid=2 / b_adapt=1 / b_bias=0 / direct=1 / weightb=1 / open_gop=0 / weightp=1 / keyint=240 / keyint_min=24 / scenecut=40 / intra_refresh=0 / rc_lookahead=10 / rc=crf / mbtree=1 / crf=20.0 / qcomp=0.60 / qpmin=0 / qpmax=69 / qpstep=4 / vbv_maxrate=20000 / vbv_bufsize=25000 / crf_max=0.0 / nal_hrd=none / ip_ratio=1.40 / aq=1:1.00\nEncoded date                             : UTC 2014-04-21 18:24:15\nTagged date                              : UTC 2014-04-21 18:54:20\nColor primaries                          : BT.709\nTransfer characteristics                 : BT.709\nMatrix coefficients                      : BT.709\n\nAudio\nID                                       : 2\nFormat                                   : AAC\nFormat/Info                              : Advanced Audio Codec\nFormat profile                           : LC\nCodec ID                                 : 40\nDuration                                 : 1h 14mn\nBit rate mode                            : Variable\nBit rate                                 : 384 Kbps\nMaximum bit rate                         : 706 Kbps\nChannel(s)                               : 6 channels\nChannel positions                        : Front: L C R, Side: L R, LFE\nSampling rate                            : 48.0 KHz\nCompression mode                         : Lossy\nStream size                              : 204 MiB (27%)\nLanguage                                 : English\nEncoded date                             : UTC 2014-04-21 18:24:15\nTagged date                              : UTC 2014-04-21 18:54:19\n\nMenu\nID                                       : 3\nCodec ID                                 : text\nDuration                                 : 1h 14mn\nEncoded date                             : UTC 2014-04-21 18:24:15\nTagged date                              : UTC 2014-04-21 18:54:20\nBit rate mode                            : CBR\n\n\n","torrent":{"xt":"urn:btih:60b590dde3f5a9956a49909ec864ca29cda2adda","amp;dn":"Son+Of+Batman+2014+720p+BrRip+6CH+x264+Pimp4003","amp;tr":["udp%3A%2F%2Ftracker.openbittorrent.com%3A80","udp%3A%2F%2Fopen.demonii.com%3A1337","udp%3A%2F%2Ftracker.coppersurfer.tk%3A6969","udp%3A%2F%2Fexodus.desync.com%3A6969"],"infoHash":"60b590dde3f5a9956a49909ec864ca29cda2adda","infoHashBuffer":{"type":"Buffer","data":[96,181,144,221,227,245,169,149,106,73,144,158,200,100,202,41,205,162,173,218]},"announce":[],"urlList":[]}}